<?xml version="1.0" encoding="utf-8" standalone="no"?>
<!DOCTYPE svg PUBLIC "-//W3C//DTD SVG 1.1//EN"
  "http://www.w3.org/Graphics/SVG/1.1/DTD/svg11.dtd">
<!-- Created with matplotlib (https://matplotlib.org/) -->
<svg height="312.210938pt" version="1.1" viewBox="0 0 265.61875 312.210938" width="265.61875pt" xmlns="http://www.w3.org/2000/svg" xmlns:xlink="http://www.w3.org/1999/xlink">
 <defs>
  <style type="text/css">
*{stroke-linecap:butt;stroke-linejoin:round;}
  </style>
 </defs>
 <g id="figure_1">
  <g id="patch_1">
   <path d="M 0 312.210938 
L 265.61875 312.210938 
L 265.61875 0 
L 0 0 
z
" style="fill:none;"/>
  </g>
  <g id="axes_1">
   <g id="patch_2">
    <path d="M 35.21875 279 
L 258.41875 279 
L 258.41875 7.2 
L 35.21875 7.2 
z
" style="fill:#ffffff;"/>
   </g>
   <g id="matplotlib.axis_1">
    <g id="xtick_1">
     <g id="line2d_1">
      <defs>
       <path d="M 0 0 
L 0 -3.5 
" id="mb89af609a0" style="stroke:#000000;stroke-width:0.8;"/>
      </defs>
      <g>
       <use style="stroke:#000000;stroke-width:0.8;" x="45.364205" xlink:href="#mb89af609a0" y="279"/>
      </g>
     </g>
     <g id="text_1">
      <!-- 0 -->
      <defs>
       <path d="M 13.203125 34.90625 
Q 13.203125 37.5 13.25 40.640625 
Q 13.296875 43.796875 13.75 46.9375 
Q 14.203125 50.09375 15.046875 53.09375 
Q 15.90625 56.09375 17.546875 58.34375 
Q 19.203125 60.59375 21.703125 62 
Q 24.203125 63.40625 27.796875 63.40625 
Q 31.40625 63.40625 33.90625 62 
Q 36.40625 60.59375 38.046875 58.34375 
Q 39.703125 56.09375 40.546875 53.09375 
Q 41.40625 50.09375 41.84375 46.9375 
Q 42.296875 43.796875 42.34375 40.640625 
Q 42.40625 37.5 42.40625 34.90625 
Q 42.40625 30.90625 42.15625 25.953125 
Q 41.90625 21 40.546875 16.640625 
Q 39.203125 12.296875 36.203125 9.296875 
Q 33.203125 6.296875 27.796875 6.296875 
Q 22.40625 6.296875 19.40625 9.296875 
Q 16.40625 12.296875 15.046875 16.640625 
Q 13.703125 21 13.453125 25.953125 
Q 13.203125 30.90625 13.203125 34.90625 
z
M 4.203125 34.796875 
Q 4.203125 30.90625 4.390625 26.703125 
Q 4.59375 22.5 5.390625 18.5 
Q 6.203125 14.5 7.703125 10.953125 
Q 9.203125 7.40625 11.796875 4.703125 
Q 14.40625 2 18.34375 0.453125 
Q 22.296875 -1.09375 27.796875 -1.09375 
Q 33.40625 -1.09375 37.296875 0.453125 
Q 41.203125 2 43.796875 4.703125 
Q 46.40625 7.40625 47.90625 10.953125 
Q 49.40625 14.5 50.203125 18.5 
Q 51 22.5 51.203125 26.703125 
Q 51.40625 30.90625 51.40625 34.796875 
Q 51.40625 38.703125 51.203125 42.890625 
Q 51 47.09375 50.203125 51.09375 
Q 49.40625 55.09375 47.90625 58.6875 
Q 46.40625 62.296875 43.796875 65 
Q 41.203125 67.703125 37.25 69.296875 
Q 33.296875 70.90625 27.796875 70.90625 
Q 22.296875 70.90625 18.34375 69.296875 
Q 14.40625 67.703125 11.796875 65 
Q 9.203125 62.296875 7.703125 58.6875 
Q 6.203125 55.09375 5.390625 51.09375 
Q 4.59375 47.09375 4.390625 42.890625 
Q 4.203125 38.703125 4.203125 34.796875 
z
" id="HelveticaNeue-48"/>
      </defs>
      <g transform="translate(42.584517 289.640625)scale(0.1 -0.1)">
       <use xlink:href="#HelveticaNeue-48"/>
      </g>
     </g>
    </g>
    <g id="xtick_2">
     <g id="line2d_2">
      <g>
       <use style="stroke:#000000;stroke-width:0.8;" x="82.66367" xlink:href="#mb89af609a0" y="279"/>
      </g>
     </g>
     <g id="text_2">
      <!-- 25 -->
      <defs>
       <path d="M 4.40625 45.796875 
L 12.90625 45.796875 
Q 12.796875 49 13.546875 52.140625 
Q 14.296875 55.296875 16 57.796875 
Q 17.703125 60.296875 20.34375 61.84375 
Q 23 63.40625 26.703125 63.40625 
Q 29.5 63.40625 32 62.5 
Q 34.5 61.59375 36.34375 59.890625 
Q 38.203125 58.203125 39.296875 55.84375 
Q 40.40625 53.5 40.40625 50.59375 
Q 40.40625 46.90625 39.25 44.09375 
Q 38.09375 41.296875 35.84375 38.890625 
Q 33.59375 36.5 30.1875 34.140625 
Q 26.796875 31.796875 22.296875 29 
Q 18.59375 26.796875 15.1875 24.296875 
Q 11.796875 21.796875 9.09375 18.5 
Q 6.40625 15.203125 4.65625 10.75 
Q 2.90625 6.296875 2.40625 0 
L 48.703125 0 
L 48.703125 7.5 
L 12.296875 7.5 
Q 12.90625 10.796875 14.84375 13.34375 
Q 16.796875 15.90625 19.546875 18.09375 
Q 22.296875 20.296875 25.59375 22.25 
Q 28.90625 24.203125 32.203125 26.203125 
Q 35.5 28.296875 38.59375 30.59375 
Q 41.703125 32.90625 44.09375 35.75 
Q 46.5 38.59375 47.953125 42.1875 
Q 49.40625 45.796875 49.40625 50.5 
Q 49.40625 55.5 47.65625 59.296875 
Q 45.90625 63.09375 42.90625 65.640625 
Q 39.90625 68.203125 35.84375 69.546875 
Q 31.796875 70.90625 27.203125 70.90625 
Q 21.59375 70.90625 17.1875 69 
Q 12.796875 67.09375 9.84375 63.75 
Q 6.90625 60.40625 5.5 55.796875 
Q 4.09375 51.203125 4.40625 45.796875 
z
" id="HelveticaNeue-50"/>
       <path d="M 47 62.203125 
L 47 69.703125 
L 12 69.703125 
L 5.40625 32.90625 
L 12.703125 32.5 
Q 15.203125 35.5 18.453125 37.34375 
Q 21.703125 39.203125 25.90625 39.203125 
Q 29.5 39.203125 32.453125 38 
Q 35.40625 36.796875 37.5 34.640625 
Q 39.59375 32.5 40.75 29.546875 
Q 41.90625 26.59375 41.90625 23.09375 
Q 41.90625 18.90625 40.703125 15.75 
Q 39.5 12.59375 37.453125 10.5 
Q 35.40625 8.40625 32.65625 7.34375 
Q 29.90625 6.296875 26.90625 6.296875 
Q 23.703125 6.296875 21.046875 7.25 
Q 18.40625 8.203125 16.453125 9.953125 
Q 14.5 11.703125 13.34375 14.046875 
Q 12.203125 16.40625 12 19.09375 
L 3.5 19.09375 
Q 3.59375 14.296875 5.390625 10.5 
Q 7.203125 6.703125 10.296875 4.140625 
Q 13.40625 1.59375 17.453125 0.25 
Q 21.5 -1.09375 26.09375 -1.09375 
Q 32.296875 -1.09375 36.9375 0.84375 
Q 41.59375 2.796875 44.6875 6.09375 
Q 47.796875 9.40625 49.34375 13.65625 
Q 50.90625 17.90625 50.90625 22.40625 
Q 50.90625 28.5 49.09375 33.046875 
Q 47.296875 37.59375 44.1875 40.640625 
Q 41.09375 43.703125 36.890625 45.203125 
Q 32.703125 46.703125 28 46.703125 
Q 24.40625 46.703125 20.75 45.453125 
Q 17.09375 44.203125 14.796875 41.59375 
L 14.59375 41.796875 
L 18.40625 62.203125 
z
" id="HelveticaNeue-53"/>
      </defs>
      <g transform="translate(77.104295 289.640625)scale(0.1 -0.1)">
       <use xlink:href="#HelveticaNeue-50"/>
       <use x="55.599991" xlink:href="#HelveticaNeue-53"/>
      </g>
     </g>
    </g>
    <g id="xtick_3">
     <g id="line2d_3">
      <g>
       <use style="stroke:#000000;stroke-width:0.8;" x="119.963135" xlink:href="#mb89af609a0" y="279"/>
      </g>
     </g>
     <g id="text_3">
      <!-- 50 -->
      <g transform="translate(114.40376 289.640625)scale(0.1 -0.1)">
       <use xlink:href="#HelveticaNeue-53"/>
       <use x="55.599991" xlink:href="#HelveticaNeue-48"/>
      </g>
     </g>
    </g>
    <g id="xtick_4">
     <g id="line2d_4">
      <g>
       <use style="stroke:#000000;stroke-width:0.8;" x="157.2626" xlink:href="#mb89af609a0" y="279"/>
      </g>
     </g>
     <g id="text_4">
      <!-- 75 -->
      <defs>
       <path d="M 50.90625 62.40625 
L 50.90625 69.703125 
L 5 69.703125 
L 5 61.703125 
L 42.203125 61.703125 
Q 36.59375 55.796875 31.75 48.796875 
Q 26.90625 41.796875 23.203125 33.9375 
Q 19.5 26.09375 17.140625 17.546875 
Q 14.796875 9 14.203125 0 
L 23.703125 0 
Q 24.203125 8.296875 26.5 17.09375 
Q 28.796875 25.90625 32.4375 34.203125 
Q 36.09375 42.5 40.796875 49.796875 
Q 45.5 57.09375 50.90625 62.40625 
z
" id="HelveticaNeue-55"/>
      </defs>
      <g transform="translate(151.703225 289.640625)scale(0.1 -0.1)">
       <use xlink:href="#HelveticaNeue-55"/>
       <use x="55.599991" xlink:href="#HelveticaNeue-53"/>
      </g>
     </g>
    </g>
    <g id="xtick_5">
     <g id="line2d_5">
      <g>
       <use style="stroke:#000000;stroke-width:0.8;" x="194.562066" xlink:href="#mb89af609a0" y="279"/>
      </g>
     </g>
     <g id="text_5">
      <!-- 100 -->
      <defs>
       <path d="M 35.59375 0 
L 35.59375 70.90625 
L 29.09375 70.90625 
Q 28.40625 66.90625 26.5 64.296875 
Q 24.59375 61.703125 21.84375 60.203125 
Q 19.09375 58.703125 15.6875 58.140625 
Q 12.296875 57.59375 8.703125 57.59375 
L 8.703125 50.796875 
L 27.09375 50.796875 
L 27.09375 0 
z
" id="HelveticaNeue-49"/>
      </defs>
      <g transform="translate(186.223003 289.640625)scale(0.1 -0.1)">
       <use xlink:href="#HelveticaNeue-49"/>
       <use x="55.599991" xlink:href="#HelveticaNeue-48"/>
       <use x="111.199982" xlink:href="#HelveticaNeue-48"/>
      </g>
     </g>
    </g>
    <g id="xtick_6">
     <g id="line2d_6">
      <g>
       <use style="stroke:#000000;stroke-width:0.8;" x="231.861531" xlink:href="#mb89af609a0" y="279"/>
      </g>
     </g>
     <g id="text_6">
      <!-- 125 -->
      <g transform="translate(223.522468 289.640625)scale(0.1 -0.1)">
       <use xlink:href="#HelveticaNeue-49"/>
       <use x="55.599991" xlink:href="#HelveticaNeue-50"/>
       <use x="111.199982" xlink:href="#HelveticaNeue-53"/>
      </g>
     </g>
    </g>
    <g id="xtick_7">
     <g id="line2d_7">
      <defs>
       <path d="M 0 0 
L 0 -2 
" id="m9b767de6a1" style="stroke:#000000;stroke-width:0.6;"/>
      </defs>
      <g>
       <use style="stroke:#000000;stroke-width:0.6;" x="37.904311" xlink:href="#m9b767de6a1" y="279"/>
      </g>
     </g>
    </g>
    <g id="xtick_8">
     <g id="line2d_8">
      <g>
       <use style="stroke:#000000;stroke-width:0.6;" x="52.824098" xlink:href="#m9b767de6a1" y="279"/>
      </g>
     </g>
    </g>
    <g id="xtick_9">
     <g id="line2d_9">
      <g>
       <use style="stroke:#000000;stroke-width:0.6;" x="60.283991" xlink:href="#m9b767de6a1" y="279"/>
      </g>
     </g>
    </g>
    <g id="xtick_10">
     <g id="line2d_10">
      <g>
       <use style="stroke:#000000;stroke-width:0.6;" x="67.743884" xlink:href="#m9b767de6a1" y="279"/>
      </g>
     </g>
    </g>
    <g id="xtick_11">
     <g id="line2d_11">
      <g>
       <use style="stroke:#000000;stroke-width:0.6;" x="75.203777" xlink:href="#m9b767de6a1" y="279"/>
      </g>
     </g>
    </g>
    <g id="xtick_12">
     <g id="line2d_12">
      <g>
       <use style="stroke:#000000;stroke-width:0.6;" x="90.123563" xlink:href="#m9b767de6a1" y="279"/>
      </g>
     </g>
    </g>
    <g id="xtick_13">
     <g id="line2d_13">
      <g>
       <use style="stroke:#000000;stroke-width:0.6;" x="97.583456" xlink:href="#m9b767de6a1" y="279"/>
      </g>
     </g>
    </g>
    <g id="xtick_14">
     <g id="line2d_14">
      <g>
       <use style="stroke:#000000;stroke-width:0.6;" x="105.043349" xlink:href="#m9b767de6a1" y="279"/>
      </g>
     </g>
    </g>
    <g id="xtick_15">
     <g id="line2d_15">
      <g>
       <use style="stroke:#000000;stroke-width:0.6;" x="112.503242" xlink:href="#m9b767de6a1" y="279"/>
      </g>
     </g>
    </g>
    <g id="xtick_16">
     <g id="line2d_16">
      <g>
       <use style="stroke:#000000;stroke-width:0.6;" x="127.423028" xlink:href="#m9b767de6a1" y="279"/>
      </g>
     </g>
    </g>
    <g id="xtick_17">
     <g id="line2d_17">
      <g>
       <use style="stroke:#000000;stroke-width:0.6;" x="134.882921" xlink:href="#m9b767de6a1" y="279"/>
      </g>
     </g>
    </g>
    <g id="xtick_18">
     <g id="line2d_18">
      <g>
       <use style="stroke:#000000;stroke-width:0.6;" x="142.342814" xlink:href="#m9b767de6a1" y="279"/>
      </g>
     </g>
    </g>
    <g id="xtick_19">
     <g id="line2d_19">
      <g>
       <use style="stroke:#000000;stroke-width:0.6;" x="149.802707" xlink:href="#m9b767de6a1" y="279"/>
      </g>
     </g>
    </g>
    <g id="xtick_20">
     <g id="line2d_20">
      <g>
       <use style="stroke:#000000;stroke-width:0.6;" x="164.722493" xlink:href="#m9b767de6a1" y="279"/>
      </g>
     </g>
    </g>
    <g id="xtick_21">
     <g id="line2d_21">
      <g>
       <use style="stroke:#000000;stroke-width:0.6;" x="172.182386" xlink:href="#m9b767de6a1" y="279"/>
      </g>
     </g>
    </g>
    <g id="xtick_22">
     <g id="line2d_22">
      <g>
       <use style="stroke:#000000;stroke-width:0.6;" x="179.642279" xlink:href="#m9b767de6a1" y="279"/>
      </g>
     </g>
    </g>
    <g id="xtick_23">
     <g id="line2d_23">
      <g>
       <use style="stroke:#000000;stroke-width:0.6;" x="187.102172" xlink:href="#m9b767de6a1" y="279"/>
      </g>
     </g>
    </g>
    <g id="xtick_24">
     <g id="line2d_24">
      <g>
       <use style="stroke:#000000;stroke-width:0.6;" x="202.021959" xlink:href="#m9b767de6a1" y="279"/>
      </g>
     </g>
    </g>
    <g id="xtick_25">
     <g id="line2d_25">
      <g>
       <use style="stroke:#000000;stroke-width:0.6;" x="209.481852" xlink:href="#m9b767de6a1" y="279"/>
      </g>
     </g>
    </g>
    <g id="xtick_26">
     <g id="line2d_26">
      <g>
       <use style="stroke:#000000;stroke-width:0.6;" x="216.941745" xlink:href="#m9b767de6a1" y="279"/>
      </g>
     </g>
    </g>
    <g id="xtick_27">
     <g id="line2d_27">
      <g>
       <use style="stroke:#000000;stroke-width:0.6;" x="224.401638" xlink:href="#m9b767de6a1" y="279"/>
      </g>
     </g>
    </g>
    <g id="xtick_28">
     <g id="line2d_28">
      <g>
       <use style="stroke:#000000;stroke-width:0.6;" x="239.321424" xlink:href="#m9b767de6a1" y="279"/>
      </g>
     </g>
    </g>
    <g id="xtick_29">
     <g id="line2d_29">
      <g>
       <use style="stroke:#000000;stroke-width:0.6;" x="246.781317" xlink:href="#m9b767de6a1" y="279"/>
      </g>
     </g>
    </g>
    <g id="xtick_30">
     <g id="line2d_30">
      <g>
       <use style="stroke:#000000;stroke-width:0.6;" x="254.24121" xlink:href="#m9b767de6a1" y="279"/>
      </g>
     </g>
    </g>
    <g id="text_7">
     <!-- $P$ (GPa) -->
     <defs>
      <path d="M 16.890625 72.90625 
L 39.703125 72.90625 
Q 49.65625 72.90625 54.875 68.265625 
Q 60.109375 63.625 60.109375 54.6875 
Q 60.109375 42.671875 52.390625 35.984375 
Q 44.671875 29.296875 30.71875 29.296875 
L 18.3125 29.296875 
L 12.59375 0 
L 2.6875 0 
z
M 25.203125 64.796875 
L 19.921875 37.40625 
L 32.328125 37.40625 
Q 40.71875 37.40625 45.203125 41.703125 
Q 49.703125 46 49.703125 54 
Q 49.703125 59.125 46.65625 61.953125 
Q 43.609375 64.796875 38.09375 64.796875 
z
" id="DejaVuSans-Oblique-80"/>
      <path id="HelveticaNeue-32"/>
      <path d="M 20.40625 -19.703125 
L 26.90625 -19.703125 
Q 19.796875 -8.203125 16.75 3.09375 
Q 13.703125 14.40625 13.703125 27 
Q 13.703125 39.296875 16.703125 50.5 
Q 19.703125 61.703125 26.90625 73.09375 
L 20.40625 73.09375 
Q 12.59375 62.796875 8.640625 50.796875 
Q 4.703125 38.796875 4.703125 27 
Q 4.703125 20.40625 5.796875 14.40625 
Q 6.90625 8.40625 8.953125 2.703125 
Q 11 -3 13.890625 -8.546875 
Q 16.796875 -14.09375 20.40625 -19.703125 
z
" id="HelveticaNeue-40"/>
      <path d="M 61.203125 8.90625 
L 63.703125 0 
L 69.703125 0 
L 69.703125 37.59375 
L 38.40625 37.59375 
L 38.40625 29.59375 
L 61.203125 29.59375 
Q 61.40625 24.703125 59.90625 20.453125 
Q 58.40625 16.203125 55.453125 13.046875 
Q 52.5 9.90625 48.203125 8.09375 
Q 43.90625 6.296875 38.296875 6.296875 
Q 32.296875 6.296875 27.75 8.640625 
Q 23.203125 11 20.09375 14.953125 
Q 17 18.90625 15.390625 24.046875 
Q 13.796875 29.203125 13.796875 34.796875 
Q 13.796875 40.5 15.1875 45.953125 
Q 16.59375 51.40625 19.546875 55.65625 
Q 22.5 59.90625 27.140625 62.5 
Q 31.796875 65.09375 38.296875 65.09375 
Q 42.296875 65.09375 45.84375 64.140625 
Q 49.40625 63.203125 52.203125 61.296875 
Q 55 59.40625 56.890625 56.453125 
Q 58.796875 53.5 59.5 49.40625 
L 69 49.40625 
Q 68 55.703125 65.25 60.140625 
Q 62.5 64.59375 58.453125 67.5 
Q 54.40625 70.40625 49.25 71.75 
Q 44.09375 73.09375 38.296875 73.09375 
Q 29.796875 73.09375 23.4375 69.9375 
Q 17.09375 66.796875 12.84375 61.5 
Q 8.59375 56.203125 6.4375 49.140625 
Q 4.296875 42.09375 4.296875 34.296875 
Q 4.296875 27.296875 6.59375 20.796875 
Q 8.90625 14.296875 13.296875 9.296875 
Q 17.703125 4.296875 24 1.34375 
Q 30.296875 -1.59375 38.296875 -1.59375 
Q 44.59375 -1.59375 50.796875 0.84375 
Q 57 3.296875 61.203125 8.90625 
z
" id="HelveticaNeue-71"/>
      <path d="M 17.296875 37.203125 
L 17.296875 63.40625 
L 35.90625 63.40625 
Q 44 63.40625 47.75 60.046875 
Q 51.5 56.703125 51.5 50.296875 
Q 51.5 43.90625 47.75 40.5 
Q 44 37.09375 35.90625 37.203125 
z
M 7.796875 71.40625 
L 7.796875 0 
L 17.296875 0 
L 17.296875 29.203125 
L 39.09375 29.203125 
Q 49.90625 29.09375 55.453125 34.6875 
Q 61 40.296875 61 50.296875 
Q 61 60.296875 55.453125 65.84375 
Q 49.90625 71.40625 39.09375 71.40625 
z
" id="HelveticaNeue-80"/>
      <path d="M 52.203125 0.203125 
Q 50 -1.09375 46.09375 -1.09375 
Q 42.796875 -1.09375 40.84375 0.75 
Q 38.90625 2.59375 38.90625 6.796875 
Q 35.40625 2.59375 30.75 0.75 
Q 26.09375 -1.09375 20.703125 -1.09375 
Q 17.203125 -1.09375 14.046875 -0.296875 
Q 10.90625 0.5 8.59375 2.203125 
Q 6.296875 3.90625 4.9375 6.65625 
Q 3.59375 9.40625 3.59375 13.296875 
Q 3.59375 17.703125 5.09375 20.5 
Q 6.59375 23.296875 9.046875 25.046875 
Q 11.5 26.796875 14.640625 27.6875 
Q 17.796875 28.59375 21.09375 29.203125 
Q 24.59375 29.90625 27.75 30.25 
Q 30.90625 30.59375 33.296875 31.25 
Q 35.703125 31.90625 37.09375 33.15625 
Q 38.5 34.40625 38.5 36.796875 
Q 38.5 39.59375 37.453125 41.296875 
Q 36.40625 43 34.75 43.890625 
Q 33.09375 44.796875 31.046875 45.09375 
Q 29 45.40625 27 45.40625 
Q 21.59375 45.40625 18 43.34375 
Q 14.40625 41.296875 14.09375 35.59375 
L 5.59375 35.59375 
Q 5.796875 40.40625 7.59375 43.703125 
Q 9.40625 47 12.40625 49.046875 
Q 15.40625 51.09375 19.25 52 
Q 23.09375 52.90625 27.5 52.90625 
Q 31 52.90625 34.453125 52.40625 
Q 37.90625 51.90625 40.703125 50.34375 
Q 43.5 48.796875 45.203125 46 
Q 46.90625 43.203125 46.90625 38.703125 
L 46.90625 12.09375 
Q 46.90625 9.09375 47.25 7.6875 
Q 47.59375 6.296875 49.59375 6.296875 
Q 50.703125 6.296875 52.203125 6.796875 
z
M 38.40625 26.703125 
Q 36.796875 25.5 34.1875 24.953125 
Q 31.59375 24.40625 28.75 24.046875 
Q 25.90625 23.703125 23 23.25 
Q 20.09375 22.796875 17.796875 21.796875 
Q 15.5 20.796875 14.046875 18.9375 
Q 12.59375 17.09375 12.59375 13.90625 
Q 12.59375 11.796875 13.4375 10.34375 
Q 14.296875 8.90625 15.640625 8 
Q 17 7.09375 18.796875 6.6875 
Q 20.59375 6.296875 22.59375 6.296875 
Q 26.796875 6.296875 29.796875 7.4375 
Q 32.796875 8.59375 34.6875 10.34375 
Q 36.59375 12.09375 37.5 14.140625 
Q 38.40625 16.203125 38.40625 18 
z
" id="HelveticaNeue-97"/>
      <path d="M -0.90625 -19.703125 
L 5.5 -19.703125 
Q 13.296875 -9.40625 17.25 2.546875 
Q 21.203125 14.5 21.203125 26.296875 
Q 21.203125 32.90625 20.09375 38.90625 
Q 19 44.90625 16.953125 50.65625 
Q 14.90625 56.40625 12 61.953125 
Q 9.09375 67.5 5.5 73.09375 
L -0.90625 73.09375 
Q 6.09375 61.59375 9.140625 50.25 
Q 12.203125 38.90625 12.203125 26.296875 
Q 12.203125 14.09375 9.203125 2.84375 
Q 6.203125 -8.40625 -0.90625 -19.703125 
z
" id="HelveticaNeue-41"/>
     </defs>
     <g transform="translate(130.06875 303.010938)scale(0.1 -0.1)">
      <use transform="translate(0 0.90625)" xlink:href="#DejaVuSans-Oblique-80"/>
      <use transform="translate(60.302734 0.90625)" xlink:href="#HelveticaNeue-32"/>
      <use transform="translate(88.102722 0.90625)" xlink:href="#HelveticaNeue-40"/>
      <use transform="translate(114.002716 0.90625)" xlink:href="#HelveticaNeue-71"/>
      <use transform="translate(189.90271 0.90625)" xlink:href="#HelveticaNeue-80"/>
      <use transform="translate(254.702698 0.90625)" xlink:href="#HelveticaNeue-97"/>
      <use transform="translate(308.402695 0.90625)" xlink:href="#HelveticaNeue-41"/>
     </g>
    </g>
   </g>
   <g id="matplotlib.axis_2">
    <g id="ytick_1">
     <g id="line2d_31">
      <defs>
       <path d="M 0 0 
L 3.5 0 
" id="mc6989ffa66" style="stroke:#000000;stroke-width:0.8;"/>
      </defs>
      <g>
       <use style="stroke:#000000;stroke-width:0.8;" x="35.21875" xlink:href="#mc6989ffa66" y="260.869739"/>
      </g>
     </g>
     <g id="text_8">
      <!-- 6 -->
      <defs>
       <path d="M 41.40625 52.796875 
L 49.90625 52.796875 
Q 49.09375 61.59375 43.890625 66.25 
Q 38.703125 70.90625 29.90625 70.90625 
Q 22.296875 70.90625 17.296875 67.703125 
Q 12.296875 64.5 9.296875 59.203125 
Q 6.296875 53.90625 5.046875 47.046875 
Q 3.796875 40.203125 3.796875 32.90625 
Q 3.796875 27.296875 4.640625 21.296875 
Q 5.5 15.296875 8.09375 10.296875 
Q 10.703125 5.296875 15.5 2.09375 
Q 20.296875 -1.09375 28.203125 -1.09375 
Q 34.90625 -1.09375 39.453125 1.15625 
Q 44 3.40625 46.75 6.84375 
Q 49.5 10.296875 50.703125 14.5 
Q 51.90625 18.703125 51.90625 22.59375 
Q 51.90625 27.5 50.40625 31.703125 
Q 48.90625 35.90625 46.15625 39 
Q 43.40625 42.09375 39.34375 43.84375 
Q 35.296875 45.59375 30.203125 45.59375 
Q 24.40625 45.59375 19.953125 43.390625 
Q 15.5 41.203125 12.5 36.296875 
L 12.296875 36.5 
Q 12.40625 40.59375 13.09375 45.296875 
Q 13.796875 50 15.640625 54.046875 
Q 17.5 58.09375 20.796875 60.75 
Q 24.09375 63.40625 29.5 63.40625 
Q 34.59375 63.40625 37.6875 60.5 
Q 40.796875 57.59375 41.40625 52.796875 
z
M 28.59375 38.09375 
Q 32.203125 38.09375 34.890625 36.796875 
Q 37.59375 35.5 39.390625 33.34375 
Q 41.203125 31.203125 42.046875 28.25 
Q 42.90625 25.296875 42.90625 22 
Q 42.90625 18.90625 41.953125 16.046875 
Q 41 13.203125 39.203125 11 
Q 37.40625 8.796875 34.75 7.546875 
Q 32.09375 6.296875 28.59375 6.296875 
Q 25.09375 6.296875 22.34375 7.546875 
Q 19.59375 8.796875 17.75 10.890625 
Q 15.90625 13 14.90625 15.890625 
Q 13.90625 18.796875 13.90625 22.09375 
Q 13.90625 25.40625 14.84375 28.34375 
Q 15.796875 31.296875 17.6875 33.4375 
Q 19.59375 35.59375 22.296875 36.84375 
Q 25 38.09375 28.59375 38.09375 
z
" id="HelveticaNeue-54"/>
      </defs>
      <g transform="translate(26.159375 264.440052)scale(0.1 -0.1)">
       <use xlink:href="#HelveticaNeue-54"/>
      </g>
     </g>
    </g>
    <g id="ytick_2">
     <g id="line2d_32">
      <g>
       <use style="stroke:#000000;stroke-width:0.8;" x="35.21875" xlink:href="#mc6989ffa66" y="205.862928"/>
      </g>
     </g>
     <g id="text_9">
      <!-- 8 -->
      <defs>
       <path d="M 15.5 52.5 
Q 15.5 55.203125 16.5 57.203125 
Q 17.5 59.203125 19.140625 60.59375 
Q 20.796875 62 23.09375 62.703125 
Q 25.40625 63.40625 27.90625 63.40625 
Q 33.09375 63.40625 36.4375 60.65625 
Q 39.796875 57.90625 39.796875 52.5 
Q 39.796875 47.09375 36.5 44.09375 
Q 33.203125 41.09375 28.09375 41.09375 
Q 25.5 41.09375 23.203125 41.796875 
Q 20.90625 42.5 19.203125 43.890625 
Q 17.5 45.296875 16.5 47.4375 
Q 15.5 49.59375 15.5 52.5 
z
M 6.5 52.796875 
Q 6.5 48 9.203125 43.953125 
Q 11.90625 39.90625 16.40625 38.09375 
Q 10.40625 36 7.203125 31.34375 
Q 4 26.703125 4 20.40625 
Q 4 15 5.84375 10.953125 
Q 7.703125 6.90625 10.953125 4.203125 
Q 14.203125 1.5 18.59375 0.203125 
Q 23 -1.09375 28.09375 -1.09375 
Q 33 -1.09375 37.296875 0.296875 
Q 41.59375 1.703125 44.75 4.453125 
Q 47.90625 7.203125 49.75 11.203125 
Q 51.59375 15.203125 51.59375 20.40625 
Q 51.59375 27 48.5 31.546875 
Q 45.40625 36.09375 39 38.09375 
Q 43.5 40.09375 46.140625 44.046875 
Q 48.796875 48 48.796875 52.796875 
Q 48.796875 56.203125 47.59375 59.453125 
Q 46.40625 62.703125 43.84375 65.25 
Q 41.296875 67.796875 37.1875 69.34375 
Q 33.09375 70.90625 27.296875 70.90625 
Q 23.203125 70.90625 19.453125 69.703125 
Q 15.703125 68.5 12.796875 66.203125 
Q 9.90625 63.90625 8.203125 60.546875 
Q 6.5 57.203125 6.5 52.796875 
z
M 13 20 
Q 13 23.09375 14.140625 25.59375 
Q 15.296875 28.09375 17.34375 29.890625 
Q 19.40625 31.703125 22.15625 32.640625 
Q 24.90625 33.59375 28 33.59375 
Q 31 33.59375 33.640625 32.546875 
Q 36.296875 31.5 38.296875 29.703125 
Q 40.296875 27.90625 41.4375 25.453125 
Q 42.59375 23 42.59375 20.09375 
Q 42.59375 17.09375 41.546875 14.59375 
Q 40.5 12.09375 38.546875 10.25 
Q 36.59375 8.40625 33.9375 7.34375 
Q 31.296875 6.296875 28.09375 6.296875 
Q 21.5 6.296875 17.25 9.9375 
Q 13 13.59375 13 20 
z
" id="HelveticaNeue-56"/>
      </defs>
      <g transform="translate(26.159375 209.43324)scale(0.1 -0.1)">
       <use xlink:href="#HelveticaNeue-56"/>
      </g>
     </g>
    </g>
    <g id="ytick_3">
     <g id="line2d_33">
      <g>
       <use style="stroke:#000000;stroke-width:0.8;" x="35.21875" xlink:href="#mc6989ffa66" y="150.856116"/>
      </g>
     </g>
     <g id="text_10">
      <!-- 10 -->
      <g transform="translate(20.6 154.426429)scale(0.1 -0.1)">
       <use xlink:href="#HelveticaNeue-49"/>
       <use x="55.599991" xlink:href="#HelveticaNeue-48"/>
      </g>
     </g>
    </g>
    <g id="ytick_4">
     <g id="line2d_34">
      <g>
       <use style="stroke:#000000;stroke-width:0.8;" x="35.21875" xlink:href="#mc6989ffa66" y="95.849305"/>
      </g>
     </g>
     <g id="text_11">
      <!-- 12 -->
      <g transform="translate(20.6 99.419618)scale(0.1 -0.1)">
       <use xlink:href="#HelveticaNeue-49"/>
       <use x="55.599991" xlink:href="#HelveticaNeue-50"/>
      </g>
     </g>
    </g>
    <g id="ytick_5">
     <g id="line2d_35">
      <g>
       <use style="stroke:#000000;stroke-width:0.8;" x="35.21875" xlink:href="#mc6989ffa66" y="40.842494"/>
      </g>
     </g>
     <g id="text_12">
      <!-- 14 -->
      <defs>
       <path d="M 33.90625 24.09375 
L 10.09375 24.09375 
L 33.703125 58.796875 
L 33.90625 58.796875 
z
M 41.90625 24.09375 
L 41.90625 70.90625 
L 35.09375 70.90625 
L 2.796875 24.796875 
L 2.796875 16.59375 
L 33.90625 16.59375 
L 33.90625 0 
L 41.90625 0 
L 41.90625 16.59375 
L 51.5 16.59375 
L 51.5 24.09375 
z
" id="HelveticaNeue-52"/>
      </defs>
      <g transform="translate(20.6 44.412806)scale(0.1 -0.1)">
       <use xlink:href="#HelveticaNeue-49"/>
       <use x="55.599991" xlink:href="#HelveticaNeue-52"/>
      </g>
     </g>
    </g>
    <g id="ytick_6">
     <g id="line2d_36">
      <defs>
       <path d="M 0 0 
L 2 0 
" id="mac1372333e" style="stroke:#000000;stroke-width:0.6;"/>
      </defs>
      <g>
       <use style="stroke:#000000;stroke-width:0.6;" x="35.21875" xlink:href="#mac1372333e" y="274.621442"/>
      </g>
     </g>
    </g>
    <g id="ytick_7">
     <g id="line2d_37">
      <g>
       <use style="stroke:#000000;stroke-width:0.6;" x="35.21875" xlink:href="#mac1372333e" y="247.118036"/>
      </g>
     </g>
    </g>
    <g id="ytick_8">
     <g id="line2d_38">
      <g>
       <use style="stroke:#000000;stroke-width:0.6;" x="35.21875" xlink:href="#mac1372333e" y="233.366334"/>
      </g>
     </g>
    </g>
    <g id="ytick_9">
     <g id="line2d_39">
      <g>
       <use style="stroke:#000000;stroke-width:0.6;" x="35.21875" xlink:href="#mac1372333e" y="219.614631"/>
      </g>
     </g>
    </g>
    <g id="ytick_10">
     <g id="line2d_40">
      <g>
       <use style="stroke:#000000;stroke-width:0.6;" x="35.21875" xlink:href="#mac1372333e" y="192.111225"/>
      </g>
     </g>
    </g>
    <g id="ytick_11">
     <g id="line2d_41">
      <g>
       <use style="stroke:#000000;stroke-width:0.6;" x="35.21875" xlink:href="#mac1372333e" y="178.359522"/>
      </g>
     </g>
    </g>
    <g id="ytick_12">
     <g id="line2d_42">
      <g>
       <use style="stroke:#000000;stroke-width:0.6;" x="35.21875" xlink:href="#mac1372333e" y="164.607819"/>
      </g>
     </g>
    </g>
    <g id="ytick_13">
     <g id="line2d_43">
      <g>
       <use style="stroke:#000000;stroke-width:0.6;" x="35.21875" xlink:href="#mac1372333e" y="137.104414"/>
      </g>
     </g>
    </g>
    <g id="ytick_14">
     <g id="line2d_44">
      <g>
       <use style="stroke:#000000;stroke-width:0.6;" x="35.21875" xlink:href="#mac1372333e" y="123.352711"/>
      </g>
     </g>
    </g>
    <g id="ytick_15">
     <g id="line2d_45">
      <g>
       <use style="stroke:#000000;stroke-width:0.6;" x="35.21875" xlink:href="#mac1372333e" y="109.601008"/>
      </g>
     </g>
    </g>
    <g id="ytick_16">
     <g id="line2d_46">
      <g>
       <use style="stroke:#000000;stroke-width:0.6;" x="35.21875" xlink:href="#mac1372333e" y="82.097602"/>
      </g>
     </g>
    </g>
    <g id="ytick_17">
     <g id="line2d_47">
      <g>
       <use style="stroke:#000000;stroke-width:0.6;" x="35.21875" xlink:href="#mac1372333e" y="68.345899"/>
      </g>
     </g>
    </g>
    <g id="ytick_18">
     <g id="line2d_48">
      <g>
       <use style="stroke:#000000;stroke-width:0.6;" x="35.21875" xlink:href="#mac1372333e" y="54.594196"/>
      </g>
     </g>
    </g>
    <g id="ytick_19">
     <g id="line2d_49">
      <g>
       <use style="stroke:#000000;stroke-width:0.6;" x="35.21875" xlink:href="#mac1372333e" y="27.090791"/>
      </g>
     </g>
    </g>
    <g id="ytick_20">
     <g id="line2d_50">
      <g>
       <use style="stroke:#000000;stroke-width:0.6;" x="35.21875" xlink:href="#mac1372333e" y="13.339088"/>
      </g>
     </g>
    </g>
    <g id="text_13">
     <!-- $v$ (km/s) -->
     <defs>
      <path d="M 7.171875 54.6875 
L 16.703125 54.6875 
L 24.703125 8.203125 
L 50.875 54.6875 
L 60.40625 54.6875 
L 29.296875 0 
L 17.1875 0 
z
" id="DejaVuSans-Oblique-118"/>
      <path d="M 6.90625 71.40625 
L 6.90625 0 
L 15.40625 0 
L 15.40625 19.59375 
L 23.40625 27 
L 41.09375 0 
L 51.90625 0 
L 29.90625 32.90625 
L 50.40625 51.703125 
L 39 51.703125 
L 15.40625 29.09375 
L 15.40625 71.40625 
z
" id="HelveticaNeue-107"/>
      <path d="M 6.40625 51.703125 
L 6.40625 0 
L 14.90625 0 
L 14.90625 32.203125 
Q 14.90625 33.703125 15.65625 35.953125 
Q 16.40625 38.203125 18.046875 40.296875 
Q 19.703125 42.40625 22.34375 43.90625 
Q 25 45.40625 28.703125 45.40625 
Q 31.59375 45.40625 33.4375 44.546875 
Q 35.296875 43.703125 36.390625 42.140625 
Q 37.5 40.59375 37.953125 38.5 
Q 38.40625 36.40625 38.40625 33.90625 
L 38.40625 0 
L 46.90625 0 
L 46.90625 32.203125 
Q 46.90625 38.203125 50.5 41.796875 
Q 54.09375 45.40625 60.40625 45.40625 
Q 63.5 45.40625 65.453125 44.5 
Q 67.40625 43.59375 68.5 42.046875 
Q 69.59375 40.5 70 38.390625 
Q 70.40625 36.296875 70.40625 33.90625 
L 70.40625 0 
L 78.90625 0 
L 78.90625 37.90625 
Q 78.90625 41.90625 77.65625 44.75 
Q 76.40625 47.59375 74.15625 49.390625 
Q 71.90625 51.203125 68.75 52.046875 
Q 65.59375 52.90625 61.703125 52.90625 
Q 56.59375 52.90625 52.34375 50.59375 
Q 48.09375 48.296875 45.5 44.09375 
Q 43.90625 48.90625 40 50.90625 
Q 36.09375 52.90625 31.296875 52.90625 
Q 20.40625 52.90625 14.59375 44.09375 
L 14.40625 44.09375 
L 14.40625 51.703125 
z
" id="HelveticaNeue-109"/>
      <path d="M 27.796875 73.09375 
L -1.703125 -1.59375 
L 5.5 -1.59375 
L 35.09375 73.09375 
z
" id="HelveticaNeue-47"/>
      <path d="M 11.59375 16.296875 
L 3.09375 16.296875 
Q 3.296875 11.5 5.09375 8.140625 
Q 6.90625 4.796875 9.90625 2.75 
Q 12.90625 0.703125 16.796875 -0.1875 
Q 20.703125 -1.09375 25 -1.09375 
Q 28.90625 -1.09375 32.84375 -0.34375 
Q 36.796875 0.40625 39.9375 2.296875 
Q 43.09375 4.203125 45.046875 7.296875 
Q 47 10.40625 47 15.09375 
Q 47 18.796875 45.546875 21.296875 
Q 44.09375 23.796875 41.75 25.4375 
Q 39.40625 27.09375 36.34375 28.09375 
Q 33.296875 29.09375 30.09375 29.796875 
Q 27.09375 30.5 24.09375 31.140625 
Q 21.09375 31.796875 18.6875 32.75 
Q 16.296875 33.703125 14.75 35.140625 
Q 13.203125 36.59375 13.203125 38.796875 
Q 13.203125 40.796875 14.203125 42.046875 
Q 15.203125 43.296875 16.796875 44.046875 
Q 18.40625 44.796875 20.34375 45.09375 
Q 22.296875 45.40625 24.203125 45.40625 
Q 26.296875 45.40625 28.34375 44.953125 
Q 30.40625 44.5 32.09375 43.5 
Q 33.796875 42.5 34.890625 40.84375 
Q 36 39.203125 36.203125 36.703125 
L 44.703125 36.703125 
Q 44.40625 41.40625 42.703125 44.546875 
Q 41 47.703125 38.140625 49.546875 
Q 35.296875 51.40625 31.59375 52.15625 
Q 27.90625 52.90625 23.5 52.90625 
Q 20.09375 52.90625 16.640625 52.046875 
Q 13.203125 51.203125 10.453125 49.453125 
Q 7.703125 47.703125 5.953125 44.890625 
Q 4.203125 42.09375 4.203125 38.203125 
Q 4.203125 33.203125 6.703125 30.390625 
Q 9.203125 27.59375 12.953125 26.046875 
Q 16.703125 24.5 21.09375 23.640625 
Q 25.5 22.796875 29.25 21.75 
Q 33 20.703125 35.5 19 
Q 38 17.296875 38 14 
Q 38 11.59375 36.796875 10.046875 
Q 35.59375 8.5 33.75 7.703125 
Q 31.90625 6.90625 29.703125 6.59375 
Q 27.5 6.296875 25.5 6.296875 
Q 22.90625 6.296875 20.453125 6.796875 
Q 18 7.296875 16.046875 8.4375 
Q 14.09375 9.59375 12.890625 11.546875 
Q 11.703125 13.5 11.59375 16.296875 
z
" id="HelveticaNeue-115"/>
     </defs>
     <g transform="translate(14.6 161.1)rotate(-90)scale(0.1 -0.1)">
      <use transform="translate(0 0.90625)" xlink:href="#DejaVuSans-Oblique-118"/>
      <use transform="translate(59.179688 0.90625)" xlink:href="#HelveticaNeue-32"/>
      <use transform="translate(86.979675 0.90625)" xlink:href="#HelveticaNeue-40"/>
      <use transform="translate(112.879669 0.90625)" xlink:href="#HelveticaNeue-107"/>
      <use transform="translate(164.779663 0.90625)" xlink:href="#HelveticaNeue-109"/>
      <use transform="translate(250.079651 0.90625)" xlink:href="#HelveticaNeue-47"/>
      <use transform="translate(283.379639 0.90625)" xlink:href="#HelveticaNeue-115"/>
      <use transform="translate(333.379623 0.90625)" xlink:href="#HelveticaNeue-41"/>
     </g>
    </g>
   </g>
   <g id="LineCollection_1">
    <path clip-path="url(#pe4487e767d)" d="M 45.364205 163.507683 
L 45.364205 163.507683 
" style="fill:none;stroke:#000000;stroke-width:1.5;"/>
    <path clip-path="url(#pe4487e767d)" d="M 51.779713 161.032377 
L 52.078108 161.032377 
" style="fill:none;stroke:#000000;stroke-width:1.5;"/>
    <path clip-path="url(#pe4487e767d)" d="M 62.671156 144.255299 
L 63.864739 144.255299 
" style="fill:none;stroke:#000000;stroke-width:1.5;"/>
    <path clip-path="url(#pe4487e767d)" d="M 68.191477 121.152438 
L 69.086664 121.152438 
" style="fill:none;stroke:#000000;stroke-width:1.5;"/>
    <path clip-path="url(#pe4487e767d)" d="M 70.578643 117.576996 
L 71.47383 117.576996 
" style="fill:none;stroke:#000000;stroke-width:1.5;"/>
    <path clip-path="url(#pe4487e767d)" d="M 75.65137 111.526246 
L 77.143349 111.526246 
" style="fill:none;stroke:#000000;stroke-width:1.5;"/>
    <path clip-path="url(#pe4487e767d)" d="M 84.155648 104.100327 
L 84.454044 104.100327 
" style="fill:none;stroke:#000000;stroke-width:1.5;"/>
    <path clip-path="url(#pe4487e767d)" d="M 91.317146 102.450122 
L 92.212333 102.450122 
" style="fill:none;stroke:#000000;stroke-width:1.5;"/>
    <path clip-path="url(#pe4487e767d)" d="M 98.926237 101.62502 
L 100.11982 101.62502 
" style="fill:none;stroke:#000000;stroke-width:1.5;"/>
   </g>
   <g id="LineCollection_2">
    <path clip-path="url(#pe4487e767d)" d="M 45.364205 165.432921 
L 45.364205 161.582445 
" style="fill:none;stroke:#000000;stroke-width:1.5;"/>
    <path clip-path="url(#pe4487e767d)" d="M 51.92891 164.057751 
L 51.92891 158.007002 
" style="fill:none;stroke:#000000;stroke-width:1.5;"/>
    <path clip-path="url(#pe4487e767d)" d="M 63.267948 148.38081 
L 63.267948 140.129788 
" style="fill:none;stroke:#000000;stroke-width:1.5;"/>
    <path clip-path="url(#pe4487e767d)" d="M 68.639071 124.452847 
L 68.639071 117.85203 
" style="fill:none;stroke:#000000;stroke-width:1.5;"/>
    <path clip-path="url(#pe4487e767d)" d="M 71.026237 120.052302 
L 71.026237 115.101689 
" style="fill:none;stroke:#000000;stroke-width:1.5;"/>
    <path clip-path="url(#pe4487e767d)" d="M 76.39736 113.726519 
L 76.39736 109.325974 
" style="fill:none;stroke:#000000;stroke-width:1.5;"/>
    <path clip-path="url(#pe4487e767d)" d="M 84.304846 106.300599 
L 84.304846 101.900054 
" style="fill:none;stroke:#000000;stroke-width:1.5;"/>
    <path clip-path="url(#pe4487e767d)" d="M 91.764739 104.925429 
L 91.764739 99.974816 
" style="fill:none;stroke:#000000;stroke-width:1.5;"/>
    <path clip-path="url(#pe4487e767d)" d="M 99.523028 103.550259 
L 99.523028 99.699782 
" style="fill:none;stroke:#000000;stroke-width:1.5;"/>
   </g>
   <g id="LineCollection_3">
    <path clip-path="url(#pe4487e767d)" d="M 45.364205 263.895114 
L 45.364205 263.895114 
" style="fill:none;stroke:#000000;stroke-width:1.5;"/>
    <path clip-path="url(#pe4487e767d)" d="M 51.779713 258.669467 
L 52.078108 258.669467 
" style="fill:none;stroke:#000000;stroke-width:1.5;"/>
    <path clip-path="url(#pe4487e767d)" d="M 62.671156 248.493207 
L 63.864739 248.493207 
" style="fill:none;stroke:#000000;stroke-width:1.5;"/>
    <path clip-path="url(#pe4487e767d)" d="M 70.578643 239.142049 
L 71.47383 239.142049 
" style="fill:none;stroke:#000000;stroke-width:1.5;"/>
    <path clip-path="url(#pe4487e767d)" d="M 75.65137 236.391708 
L 77.143349 236.391708 
" style="fill:none;stroke:#000000;stroke-width:1.5;"/>
    <path clip-path="url(#pe4487e767d)" d="M 84.155648 236.391708 
L 84.454044 236.391708 
" style="fill:none;stroke:#000000;stroke-width:1.5;"/>
    <path clip-path="url(#pe4487e767d)" d="M 84.603242 236.941776 
L 85.796825 236.941776 
" style="fill:none;stroke:#000000;stroke-width:1.5;"/>
    <path clip-path="url(#pe4487e767d)" d="M 91.317146 235.566606 
L 92.212333 235.566606 
" style="fill:none;stroke:#000000;stroke-width:1.5;"/>
    <path clip-path="url(#pe4487e767d)" d="M 98.926237 236.116674 
L 100.11982 236.116674 
" style="fill:none;stroke:#000000;stroke-width:1.5;"/>
    <path clip-path="url(#pe4487e767d)" d="M 100.269017 234.46647 
L 100.865809 234.46647 
" style="fill:none;stroke:#000000;stroke-width:1.5;"/>
    <path clip-path="url(#pe4487e767d)" d="M 104.29736 231.991163 
L 106.087734 231.991163 
" style="fill:none;stroke:#000000;stroke-width:1.5;"/>
    <path clip-path="url(#pe4487e767d)" d="M 113.100033 231.991163 
L 114.592012 231.991163 
" style="fill:none;stroke:#000000;stroke-width:1.5;"/>
    <path clip-path="url(#pe4487e767d)" d="M 122.797894 232.266197 
L 124.289873 232.266197 
" style="fill:none;stroke:#000000;stroke-width:1.5;"/>
    <path clip-path="url(#pe4487e767d)" d="M 136.971691 228.965789 
L 138.46367 228.965789 
" style="fill:none;stroke:#000000;stroke-width:1.5;"/>
    <path clip-path="url(#pe4487e767d)" d="M 149.205916 229.790891 
L 150.697894 229.790891 
" style="fill:none;stroke:#000000;stroke-width:1.5;"/>
    <path clip-path="url(#pe4487e767d)" d="M 155.770622 229.240823 
L 158.754579 229.240823 
" style="fill:none;stroke:#000000;stroke-width:1.5;"/>
    <path clip-path="url(#pe4487e767d)" d="M 168.601638 228.965789 
L 171.883991 228.965789 
" style="fill:none;stroke:#000000;stroke-width:1.5;"/>
    <path clip-path="url(#pe4487e767d)" d="M 177.851905 228.415721 
L 179.940675 228.415721 
" style="fill:none;stroke:#000000;stroke-width:1.5;"/>
    <path clip-path="url(#pe4487e767d)" d="M 187.400568 227.04055 
L 188.295755 227.04055 
" style="fill:none;stroke:#000000;stroke-width:1.5;"/>
    <path clip-path="url(#pe4487e767d)" d="M 195.308055 225.66538 
L 197.098429 225.66538 
" style="fill:none;stroke:#000000;stroke-width:1.5;"/>
    <path clip-path="url(#pe4487e767d)" d="M 209.929445 224.840278 
L 213.510194 224.840278 
" style="fill:none;stroke:#000000;stroke-width:1.5;"/>
    <path clip-path="url(#pe4487e767d)" d="M 218.433723 224.565244 
L 219.925702 224.565244 
" style="fill:none;stroke:#000000;stroke-width:1.5;"/>
    <path clip-path="url(#pe4487e767d)" d="M 225.893616 224.29021 
L 227.385595 224.29021 
" style="fill:none;stroke:#000000;stroke-width:1.5;"/>
    <path clip-path="url(#pe4487e767d)" d="M 232.458322 224.015176 
L 234.547092 224.015176 
" style="fill:none;stroke:#000000;stroke-width:1.5;"/>
    <path clip-path="url(#pe4487e767d)" d="M 240.365809 224.015176 
L 242.454579 224.015176 
" style="fill:none;stroke:#000000;stroke-width:1.5;"/>
    <path clip-path="url(#pe4487e767d)" d="M 244.990943 223.465108 
L 246.184525 223.465108 
" style="fill:none;stroke:#000000;stroke-width:1.5;"/>
   </g>
   <g id="LineCollection_4">
    <path clip-path="url(#pe4487e767d)" d="M 45.364205 266.645455 
L 45.364205 261.144773 
" style="fill:none;stroke:#000000;stroke-width:1.5;"/>
    <path clip-path="url(#pe4487e767d)" d="M 51.92891 260.044637 
L 51.92891 257.294297 
" style="fill:none;stroke:#000000;stroke-width:1.5;"/>
    <path clip-path="url(#pe4487e767d)" d="M 63.267948 249.868377 
L 63.267948 247.118036 
" style="fill:none;stroke:#000000;stroke-width:1.5;"/>
    <path clip-path="url(#pe4487e767d)" d="M 71.026237 241.067287 
L 71.026237 237.21681 
" style="fill:none;stroke:#000000;stroke-width:1.5;"/>
    <path clip-path="url(#pe4487e767d)" d="M 76.39736 239.142049 
L 76.39736 233.641368 
" style="fill:none;stroke:#000000;stroke-width:1.5;"/>
    <path clip-path="url(#pe4487e767d)" d="M 84.304846 238.316947 
L 84.304846 234.46647 
" style="fill:none;stroke:#000000;stroke-width:1.5;"/>
    <path clip-path="url(#pe4487e767d)" d="M 85.200033 238.591981 
L 85.200033 235.291572 
" style="fill:none;stroke:#000000;stroke-width:1.5;"/>
    <path clip-path="url(#pe4487e767d)" d="M 91.764739 237.491844 
L 91.764739 233.641368 
" style="fill:none;stroke:#000000;stroke-width:1.5;"/>
    <path clip-path="url(#pe4487e767d)" d="M 99.523028 237.491844 
L 99.523028 234.741504 
" style="fill:none;stroke:#000000;stroke-width:1.5;"/>
    <path clip-path="url(#pe4487e767d)" d="M 100.567413 235.84164 
L 100.567413 233.0913 
" style="fill:none;stroke:#000000;stroke-width:1.5;"/>
    <path clip-path="url(#pe4487e767d)" d="M 105.192547 233.366334 
L 105.192547 230.615993 
" style="fill:none;stroke:#000000;stroke-width:1.5;"/>
    <path clip-path="url(#pe4487e767d)" d="M 113.846023 233.641368 
L 113.846023 230.340959 
" style="fill:none;stroke:#000000;stroke-width:1.5;"/>
    <path clip-path="url(#pe4487e767d)" d="M 123.543884 233.641368 
L 123.543884 230.891027 
" style="fill:none;stroke:#000000;stroke-width:1.5;"/>
    <path clip-path="url(#pe4487e767d)" d="M 137.71768 230.340959 
L 137.71768 227.590618 
" style="fill:none;stroke:#000000;stroke-width:1.5;"/>
    <path clip-path="url(#pe4487e767d)" d="M 149.951905 231.166061 
L 149.951905 228.415721 
" style="fill:none;stroke:#000000;stroke-width:1.5;"/>
    <path clip-path="url(#pe4487e767d)" d="M 157.2626 230.615993 
L 157.2626 227.865652 
" style="fill:none;stroke:#000000;stroke-width:1.5;"/>
    <path clip-path="url(#pe4487e767d)" d="M 170.242814 230.891027 
L 170.242814 227.04055 
" style="fill:none;stroke:#000000;stroke-width:1.5;"/>
    <path clip-path="url(#pe4487e767d)" d="M 178.89629 230.340959 
L 178.89629 226.490482 
" style="fill:none;stroke:#000000;stroke-width:1.5;"/>
    <path clip-path="url(#pe4487e767d)" d="M 187.848162 228.415721 
L 187.848162 225.66538 
" style="fill:none;stroke:#000000;stroke-width:1.5;"/>
    <path clip-path="url(#pe4487e767d)" d="M 196.203242 227.04055 
L 196.203242 224.29021 
" style="fill:none;stroke:#000000;stroke-width:1.5;"/>
    <path clip-path="url(#pe4487e767d)" d="M 211.71982 226.215448 
L 211.71982 223.465108 
" style="fill:none;stroke:#000000;stroke-width:1.5;"/>
    <path clip-path="url(#pe4487e767d)" d="M 219.179713 225.940414 
L 219.179713 223.190074 
" style="fill:none;stroke:#000000;stroke-width:1.5;"/>
    <path clip-path="url(#pe4487e767d)" d="M 226.639606 225.66538 
L 226.639606 222.915039 
" style="fill:none;stroke:#000000;stroke-width:1.5;"/>
    <path clip-path="url(#pe4487e767d)" d="M 233.502707 225.66538 
L 233.502707 222.364971 
" style="fill:none;stroke:#000000;stroke-width:1.5;"/>
    <path clip-path="url(#pe4487e767d)" d="M 241.410194 226.215448 
L 241.410194 221.814903 
" style="fill:none;stroke:#000000;stroke-width:1.5;"/>
    <path clip-path="url(#pe4487e767d)" d="M 245.587734 226.215448 
L 245.587734 220.714767 
" style="fill:none;stroke:#000000;stroke-width:1.5;"/>
   </g>
   <g id="line2d_51">
    <path clip-path="url(#pe4487e767d)" d="M 128.915007 65.058412 
L 130.406985 64.319546 
L 131.898964 63.587348 
L 133.390943 62.86167 
L 134.882921 62.142373 
L 136.3749 61.429338 
L 137.866878 60.722428 
L 139.358857 60.021517 
L 140.850836 59.326497 
L 142.342814 58.637242 
L 143.834793 57.953638 
L 145.326771 57.275586 
L 146.81875 56.602971 
L 148.310729 55.935687 
L 149.802707 55.273646 
L 151.294686 54.616743 
L 152.786664 53.964881 
L 154.278643 53.317977 
L 155.770622 52.67594 
L 157.2626 52.038675 
L 158.754579 51.406109 
L 160.246557 50.778162 
L 161.738536 50.15474 
L 163.230515 49.535781 
L 164.722493 48.921209 
L 166.214472 48.310942 
L 167.706451 47.704915 
L 169.198429 47.103064 
L 170.690408 46.505315 
L 172.182386 45.911603 
L 173.674365 45.321871 
L 175.166344 44.736055 
L 176.658322 44.154087 
L 178.150301 43.575919 
L 179.642279 43.001493 
L 181.134258 42.430747 
L 182.626237 41.86363 
L 184.118215 41.300095 
L 185.610194 40.740087 
L 187.102172 40.183551 
L 188.594151 39.630447 
L 190.08613 39.080727 
L 191.578108 38.534338 
L 193.070087 37.99124 
L 194.562066 37.451393 
L 196.054044 36.914753 
L 197.546023 36.381271 
L 199.038001 35.850916 
L 200.52998 35.32365 
L 202.021959 34.799429 
L 203.513937 34.278216 
L 205.005916 33.75998 
L 206.497894 33.244687 
L 207.989873 32.732296 
L 209.481852 32.222777 
L 210.97383 31.716103 
L 212.465809 31.21224 
L 213.957787 30.711152 
L 215.449766 30.212815 
L 216.941745 29.717203 
L 218.433723 29.224285 
L 219.925702 28.734029 
L 221.41768 28.246416 
L 222.909659 27.761419 
L 224.401638 27.279013 
L 225.893616 26.799169 
L 227.385595 26.321868 
L 228.877574 25.847089 
L 230.369552 25.374808 
L 231.861531 24.904998 
L 233.353509 24.437644 
L 234.845488 23.972725 
L 236.337467 23.51022 
L 237.829445 23.050106 
L 239.321424 22.592368 
L 240.813402 22.136988 
L 242.305381 21.683946 
L 243.79736 21.233221 
L 245.289338 20.7848 
L 246.781317 20.338665 
L 248.273295 19.894799 
" style="fill:none;stroke:#dbe9f6;stroke-linecap:square;stroke-width:1.5;"/>
   </g>
   <g id="line2d_52">
    <path clip-path="url(#pe4487e767d)" d="M 128.915007 65.128967 
L 130.406985 64.372047 
L 131.898964 63.622566 
L 133.390943 62.880356 
L 134.882921 62.145226 
L 136.3749 61.41704 
L 137.866878 60.695639 
L 139.358857 59.980854 
L 140.850836 59.27256 
L 142.342814 58.570613 
L 143.834793 57.874859 
L 145.326771 57.185185 
L 146.81875 56.501461 
L 148.310729 55.823546 
L 149.802707 55.151338 
L 151.294686 54.484721 
L 152.786664 53.823563 
L 154.278643 53.167774 
L 155.770622 52.517247 
L 157.2626 51.871864 
L 158.754579 51.231539 
L 160.246557 50.596177 
L 161.738536 49.965672 
L 163.230515 49.339941 
L 164.722493 48.718899 
L 166.214472 48.102455 
L 167.706451 47.490522 
L 169.198429 46.88303 
L 170.690408 46.279897 
L 172.182386 45.681036 
L 173.674365 45.086386 
L 175.166344 44.495875 
L 176.658322 43.909421 
L 178.150301 43.326965 
L 179.642279 42.748445 
L 181.134258 42.173789 
L 182.626237 41.602934 
L 184.118215 41.035826 
L 185.610194 40.472406 
L 187.102172 39.912605 
L 188.594151 39.356379 
L 190.08613 38.803673 
L 191.578108 38.254432 
L 193.070087 37.708599 
L 194.562066 37.166135 
L 196.054044 36.626989 
L 197.546023 36.091106 
L 199.038001 35.558447 
L 200.52998 35.02897 
L 202.021959 34.50263 
L 203.513937 33.979378 
L 205.005916 33.459181 
L 206.497894 32.942002 
L 207.989873 32.427795 
L 209.481852 31.916524 
L 210.97383 31.408157 
L 212.465809 30.902659 
L 213.957787 30.399989 
L 215.449766 29.900118 
L 216.941745 29.403017 
L 218.433723 28.908653 
L 219.925702 28.41699 
L 221.41768 27.928002 
L 222.909659 27.441664 
L 224.401638 26.957947 
L 225.893616 26.476816 
L 227.385595 25.998252 
L 228.877574 25.52223 
L 230.369552 25.048724 
L 231.861531 24.577704 
L 233.353509 24.109152 
L 234.845488 23.643046 
L 236.337467 23.179364 
L 237.829445 22.718076 
L 239.321424 22.259168 
L 240.813402 21.802619 
L 242.305381 21.348409 
L 243.79736 20.896513 
L 245.289338 20.446916 
L 246.781317 19.9996 
L 248.273295 19.554545 
" style="fill:none;stroke:#539ecd;stroke-linecap:square;stroke-width:1.5;"/>
   </g>
   <g id="line2d_53">
    <path clip-path="url(#pe4487e767d)" d="M 128.915007 66.414497 
L 130.406985 65.612394 
L 131.898964 64.819361 
L 133.390943 64.035162 
L 134.882921 63.259592 
L 136.3749 62.492415 
L 137.866878 61.733428 
L 139.358857 60.982442 
L 140.850836 60.239239 
L 142.342814 59.503644 
L 143.834793 58.775483 
L 145.326771 58.054557 
L 146.81875 57.340711 
L 148.310729 56.633786 
L 149.802707 55.933601 
L 151.294686 55.240017 
L 152.786664 54.55289 
L 154.278643 53.872058 
L 155.770622 53.19739 
L 157.2626 52.528759 
L 158.754579 51.866018 
L 160.246557 51.209045 
L 161.738536 50.557726 
L 163.230515 49.911932 
L 164.722493 49.271543 
L 166.214472 48.636459 
L 167.706451 48.006568 
L 169.198429 47.381751 
L 170.690408 46.761921 
L 172.182386 46.14698 
L 173.674365 45.536812 
L 175.166344 44.931339 
L 176.658322 44.330473 
L 178.150301 43.734114 
L 179.642279 43.142179 
L 181.134258 42.554592 
L 182.626237 41.971269 
L 184.118215 41.39212 
L 185.610194 40.817083 
L 187.102172 40.246083 
L 188.594151 39.679037 
L 190.08613 39.115881 
L 191.578108 38.556551 
L 193.070087 38.000979 
L 194.562066 37.44909 
L 196.054044 36.900835 
L 197.546023 36.356153 
L 199.038001 35.814975 
L 200.52998 35.277247 
L 202.021959 34.742919 
L 203.513937 34.211937 
L 205.005916 33.684235 
L 206.497894 33.159774 
L 207.989873 32.638506 
L 209.481852 32.120377 
L 210.97383 31.605335 
L 212.465809 31.093344 
L 213.957787 30.58436 
L 215.449766 30.078332 
L 216.941745 29.57522 
L 218.433723 29.074988 
L 219.925702 28.577596 
L 221.41768 28.082998 
L 222.909659 27.591162 
L 224.401638 27.102054 
L 225.893616 26.615638 
L 227.385595 26.131872 
L 228.877574 25.650728 
L 230.369552 25.172177 
L 231.861531 24.696185 
L 233.353509 24.222714 
L 234.845488 23.751741 
L 236.337467 23.283239 
L 237.829445 22.817177 
L 239.321424 22.353522 
L 240.813402 21.892251 
L 242.305381 21.433341 
L 243.79736 20.976765 
L 245.289338 20.522492 
L 246.781317 20.070502 
L 248.273295 19.620772 
" style="fill:none;stroke:#08306b;stroke-linecap:square;stroke-width:1.5;"/>
   </g>
   <g id="line2d_54">
    <path clip-path="url(#pe4487e767d)" d="M 128.915007 225.294826 
L 130.406985 225.135039 
L 131.898964 224.978277 
L 133.390943 224.824457 
L 134.882921 224.673502 
L 136.3749 224.525345 
L 137.866878 224.379911 
L 139.358857 224.23713 
L 140.850836 224.096942 
L 142.342814 223.959277 
L 143.834793 223.824074 
L 145.326771 223.691277 
L 146.81875 223.560825 
L 148.310729 223.432659 
L 149.802707 223.306733 
L 151.294686 223.182989 
L 152.786664 223.061374 
L 154.278643 222.941846 
L 155.770622 222.824354 
L 157.2626 222.708848 
L 158.754579 222.595291 
L 160.246557 222.483638 
L 161.738536 222.37384 
L 163.230515 222.265865 
L 164.722493 222.159674 
L 166.214472 222.055222 
L 167.706451 221.952478 
L 169.198429 221.851407 
L 170.690408 221.751971 
L 172.182386 221.654137 
L 173.674365 221.557875 
L 175.166344 221.463153 
L 176.658322 221.369937 
L 178.150301 221.278201 
L 179.642279 221.187918 
L 181.134258 221.099055 
L 182.626237 221.011588 
L 184.118215 220.925492 
L 185.610194 220.840742 
L 187.102172 220.757308 
L 188.594151 220.675173 
L 190.08613 220.594312 
L 191.578108 220.514701 
L 193.070087 220.436318 
L 194.562066 220.359147 
L 196.054044 220.283165 
L 197.546023 220.208348 
L 199.038001 220.134683 
L 200.52998 220.062152 
L 202.021959 219.990734 
L 203.513937 219.920412 
L 205.005916 219.851173 
L 206.497894 219.783 
L 207.989873 219.715875 
L 209.481852 219.649784 
L 210.97383 219.584716 
L 212.465809 219.520657 
L 213.957787 219.457588 
L 215.449766 219.395501 
L 216.941745 219.334384 
L 218.433723 219.274226 
L 219.925702 219.21501 
L 221.41768 219.156731 
L 222.909659 219.099378 
L 224.401638 219.042939 
L 225.893616 218.987402 
L 227.385595 218.932763 
L 228.877574 218.879011 
L 230.369552 218.826137 
L 231.861531 218.774131 
L 233.353509 218.722988 
L 234.845488 218.6727 
L 236.337467 218.623259 
L 237.829445 218.574657 
L 239.321424 218.526888 
L 240.813402 218.479947 
L 242.305381 218.433827 
L 243.79736 218.38852 
L 245.289338 218.344022 
L 246.781317 218.300327 
L 248.273295 218.25743 
" style="fill:none;stroke:#dbe9f6;stroke-linecap:square;stroke-width:1.5;"/>
   </g>
   <g id="line2d_55">
    <path clip-path="url(#pe4487e767d)" d="M 128.915007 225.306574 
L 130.406985 225.136376 
L 131.898964 224.969643 
L 133.390943 224.806279 
L 134.882921 224.64618 
L 136.3749 224.489269 
L 137.866878 224.335458 
L 139.358857 224.184653 
L 140.850836 224.036785 
L 142.342814 223.891776 
L 143.834793 223.74954 
L 145.326771 223.610016 
L 146.81875 223.473132 
L 148.310729 223.33881 
L 149.802707 223.206997 
L 151.294686 223.077629 
L 152.786664 222.950633 
L 154.278643 222.825961 
L 155.770622 222.703557 
L 157.2626 222.583355 
L 158.754579 222.46531 
L 160.246557 222.349371 
L 161.738536 222.235482 
L 163.230515 222.123598 
L 164.722493 222.013675 
L 166.214472 221.905663 
L 167.706451 221.799517 
L 169.198429 221.695201 
L 170.690408 221.59267 
L 172.182386 221.491881 
L 173.674365 221.3928 
L 175.166344 221.295391 
L 176.658322 221.199611 
L 178.150301 221.105429 
L 179.642279 221.012813 
L 181.134258 220.921727 
L 182.626237 220.832138 
L 184.118215 220.74402 
L 185.610194 220.657341 
L 187.102172 220.572067 
L 188.594151 220.488176 
L 190.08613 220.405641 
L 191.578108 220.324433 
L 193.070087 220.244526 
L 194.562066 220.165898 
L 196.054044 220.088526 
L 197.546023 220.012381 
L 199.038001 219.937446 
L 200.52998 219.8637 
L 202.021959 219.791122 
L 203.513937 219.719686 
L 205.005916 219.64938 
L 206.497894 219.580183 
L 207.989873 219.512076 
L 209.481852 219.44504 
L 210.97383 219.379062 
L 212.465809 219.314126 
L 213.957787 219.250212 
L 215.449766 219.187307 
L 216.941745 219.125398 
L 218.433723 219.064472 
L 219.925702 219.00451 
L 221.41768 218.945503 
L 222.909659 218.88744 
L 224.401638 218.830308 
L 225.893616 218.774091 
L 227.385595 218.718783 
L 228.877574 218.664373 
L 230.369552 218.610851 
L 231.861531 218.558203 
L 233.353509 218.506423 
L 234.845488 218.455502 
L 236.337467 218.405431 
L 237.829445 218.356199 
L 239.321424 218.3078 
L 240.813402 218.260227 
L 242.305381 218.213472 
L 243.79736 218.167525 
L 245.289338 218.122381 
L 246.781317 218.078034 
L 248.273295 218.034477 
" style="fill:none;stroke:#539ecd;stroke-linecap:square;stroke-width:1.5;"/>
   </g>
   <g id="line2d_56">
    <path clip-path="url(#pe4487e767d)" d="M 128.915007 225.920819 
L 130.406985 225.725251 
L 131.898964 225.534068 
L 133.390943 225.34714 
L 134.882921 225.164353 
L 136.3749 224.985576 
L 137.866878 224.810697 
L 139.358857 224.639613 
L 140.850836 224.472202 
L 142.342814 224.308368 
L 143.834793 224.148015 
L 145.326771 223.991034 
L 146.81875 223.83734 
L 148.310729 223.686847 
L 149.802707 223.539454 
L 151.294686 223.395086 
L 152.786664 223.253665 
L 154.278643 223.115101 
L 155.770622 222.979324 
L 157.2626 222.846265 
L 158.754579 222.715845 
L 160.246557 222.587996 
L 161.738536 222.462658 
L 163.230515 222.33976 
L 164.722493 222.219239 
L 166.214472 222.10104 
L 167.706451 221.985103 
L 169.198429 221.871365 
L 170.690408 221.759779 
L 172.182386 221.650292 
L 173.674365 221.542843 
L 175.166344 221.437391 
L 176.658322 221.333888 
L 178.150301 221.232281 
L 179.642279 221.132527 
L 181.134258 221.034586 
L 182.626237 220.938413 
L 184.118215 220.843962 
L 185.610194 220.751199 
L 187.102172 220.660085 
L 188.594151 220.570577 
L 190.08613 220.482642 
L 191.578108 220.396248 
L 193.070087 220.311357 
L 194.562066 220.227933 
L 196.054044 220.145948 
L 197.546023 220.065374 
L 199.038001 219.986172 
L 200.52998 219.908318 
L 202.021959 219.831785 
L 203.513937 219.756545 
L 205.005916 219.682566 
L 206.497894 219.609828 
L 207.989873 219.538306 
L 209.481852 219.467975 
L 210.97383 219.398807 
L 212.465809 219.330786 
L 213.957787 219.26389 
L 215.449766 219.198094 
L 216.941745 219.133377 
L 218.433723 219.069723 
L 219.925702 219.007113 
L 221.41768 218.945524 
L 222.909659 218.884941 
L 224.401638 218.825348 
L 225.893616 218.766729 
L 227.385595 218.709061 
L 228.877574 218.652335 
L 230.369552 218.596535 
L 231.861531 218.541647 
L 233.353509 218.487652 
L 234.845488 218.43454 
L 236.337467 218.382299 
L 237.829445 218.330916 
L 239.321424 218.280375 
L 240.813402 218.230666 
L 242.305381 218.18178 
L 243.79736 218.133705 
L 245.289338 218.086426 
L 246.781317 218.039935 
L 248.273295 217.994224 
" style="fill:none;stroke:#08306b;stroke-linecap:square;stroke-width:1.5;"/>
   </g>
   <g id="line2d_57">
    <defs>
     <path d="M -0.5 0 
L 0.5 0 
M 0 0.5 
L 0 -0.5 
" id="m5944ccae51" style="stroke:#000000;"/>
    </defs>
    <g clip-path="url(#pe4487e767d)">
     <use style="stroke:#000000;" x="45.364205" xlink:href="#m5944ccae51" y="163.507683"/>
     <use style="stroke:#000000;" x="51.92891" xlink:href="#m5944ccae51" y="161.032377"/>
     <use style="stroke:#000000;" x="63.267948" xlink:href="#m5944ccae51" y="144.255299"/>
     <use style="stroke:#000000;" x="68.639071" xlink:href="#m5944ccae51" y="121.152438"/>
     <use style="stroke:#000000;" x="71.026237" xlink:href="#m5944ccae51" y="117.576996"/>
     <use style="stroke:#000000;" x="76.39736" xlink:href="#m5944ccae51" y="111.526246"/>
     <use style="stroke:#000000;" x="84.304846" xlink:href="#m5944ccae51" y="104.100327"/>
     <use style="stroke:#000000;" x="91.764739" xlink:href="#m5944ccae51" y="102.450122"/>
     <use style="stroke:#000000;" x="99.523028" xlink:href="#m5944ccae51" y="101.62502"/>
    </g>
   </g>
   <g id="line2d_58">
    <g clip-path="url(#pe4487e767d)">
     <use style="stroke:#000000;" x="45.364205" xlink:href="#m5944ccae51" y="263.895114"/>
     <use style="stroke:#000000;" x="51.92891" xlink:href="#m5944ccae51" y="258.669467"/>
     <use style="stroke:#000000;" x="63.267948" xlink:href="#m5944ccae51" y="248.493207"/>
     <use style="stroke:#000000;" x="71.026237" xlink:href="#m5944ccae51" y="239.142049"/>
     <use style="stroke:#000000;" x="76.39736" xlink:href="#m5944ccae51" y="236.391708"/>
     <use style="stroke:#000000;" x="84.304846" xlink:href="#m5944ccae51" y="236.391708"/>
     <use style="stroke:#000000;" x="85.200033" xlink:href="#m5944ccae51" y="236.941776"/>
     <use style="stroke:#000000;" x="91.764739" xlink:href="#m5944ccae51" y="235.566606"/>
     <use style="stroke:#000000;" x="99.523028" xlink:href="#m5944ccae51" y="236.116674"/>
     <use style="stroke:#000000;" x="100.567413" xlink:href="#m5944ccae51" y="234.46647"/>
     <use style="stroke:#000000;" x="105.192547" xlink:href="#m5944ccae51" y="231.991163"/>
     <use style="stroke:#000000;" x="113.846023" xlink:href="#m5944ccae51" y="231.991163"/>
     <use style="stroke:#000000;" x="123.543884" xlink:href="#m5944ccae51" y="232.266197"/>
     <use style="stroke:#000000;" x="137.71768" xlink:href="#m5944ccae51" y="228.965789"/>
     <use style="stroke:#000000;" x="149.951905" xlink:href="#m5944ccae51" y="229.790891"/>
     <use style="stroke:#000000;" x="157.2626" xlink:href="#m5944ccae51" y="229.240823"/>
     <use style="stroke:#000000;" x="170.242814" xlink:href="#m5944ccae51" y="228.965789"/>
     <use style="stroke:#000000;" x="178.89629" xlink:href="#m5944ccae51" y="228.415721"/>
     <use style="stroke:#000000;" x="187.848162" xlink:href="#m5944ccae51" y="227.04055"/>
     <use style="stroke:#000000;" x="196.203242" xlink:href="#m5944ccae51" y="225.66538"/>
     <use style="stroke:#000000;" x="211.71982" xlink:href="#m5944ccae51" y="224.840278"/>
     <use style="stroke:#000000;" x="219.179713" xlink:href="#m5944ccae51" y="224.565244"/>
     <use style="stroke:#000000;" x="226.639606" xlink:href="#m5944ccae51" y="224.29021"/>
     <use style="stroke:#000000;" x="233.502707" xlink:href="#m5944ccae51" y="224.015176"/>
     <use style="stroke:#000000;" x="241.410194" xlink:href="#m5944ccae51" y="224.015176"/>
     <use style="stroke:#000000;" x="245.587734" xlink:href="#m5944ccae51" y="223.465108"/>
    </g>
   </g>
   <g id="patch_3">
    <path d="M 35.21875 279 
L 35.21875 7.2 
" style="fill:none;stroke:#000000;stroke-linecap:square;stroke-linejoin:miter;stroke-width:0.8;"/>
   </g>
   <g id="patch_4">
    <path d="M 258.41875 279 
L 258.41875 7.2 
" style="fill:none;stroke:#000000;stroke-linecap:square;stroke-linejoin:miter;stroke-width:0.8;"/>
   </g>
   <g id="patch_5">
    <path d="M 35.21875 279 
L 258.41875 279 
" style="fill:none;stroke:#000000;stroke-linecap:square;stroke-linejoin:miter;stroke-width:0.8;"/>
   </g>
   <g id="patch_6">
    <path d="M 35.21875 7.2 
L 258.41875 7.2 
" style="fill:none;stroke:#000000;stroke-linecap:square;stroke-linejoin:miter;stroke-width:0.8;"/>
   </g>
   <g id="legend_1">
    <g id="patch_7">
     <path d="M 149.060937 172.90625 
L 253.41875 172.90625 
L 253.41875 113.29375 
L 149.060937 113.29375 
z
" style="fill:#ffffff;stroke:#ffffff;stroke-linejoin:miter;"/>
    </g>
    <g id="line2d_59">
     <path d="M 153.060937 120.934375 
L 173.060937 120.934375 
" style="fill:none;stroke:#dbe9f6;stroke-linecap:square;stroke-width:1.5;"/>
    </g>
    <g id="line2d_60"/>
    <g id="text_14">
     <!-- 0 K -->
     <defs>
      <path d="M 7.796875 71.40625 
L 7.796875 0 
L 17.296875 0 
L 17.296875 25 
L 29.203125 36.09375 
L 55 0 
L 67 0 
L 35.703125 42.59375 
L 65.796875 71.40625 
L 53.5 71.40625 
L 17.296875 35.796875 
L 17.296875 71.40625 
z
" id="HelveticaNeue-75"/>
     </defs>
     <g transform="translate(181.060937 124.434375)scale(0.1 -0.1)">
      <use xlink:href="#HelveticaNeue-48"/>
      <use x="55.599991" xlink:href="#HelveticaNeue-32"/>
      <use x="83.399979" xlink:href="#HelveticaNeue-75"/>
     </g>
    </g>
    <g id="line2d_61">
     <path d="M 153.060937 135.045312 
L 173.060937 135.045312 
" style="fill:none;stroke:#539ecd;stroke-linecap:square;stroke-width:1.5;"/>
    </g>
    <g id="line2d_62"/>
    <g id="text_15">
     <!-- 300 K -->
     <defs>
      <path d="M 21.796875 40.5 
L 21.796875 33.296875 
Q 24.203125 33.59375 26.90625 33.59375 
Q 30.09375 33.59375 32.84375 32.75 
Q 35.59375 31.90625 37.59375 30.15625 
Q 39.59375 28.40625 40.796875 25.84375 
Q 42 23.296875 42 20 
Q 42 16.796875 40.75 14.25 
Q 39.5 11.703125 37.390625 9.953125 
Q 35.296875 8.203125 32.5 7.25 
Q 29.703125 6.296875 26.59375 6.296875 
Q 19.296875 6.296875 15.5 10.640625 
Q 11.703125 15 11.5 21.90625 
L 3 21.90625 
Q 2.90625 16.40625 4.546875 12.09375 
Q 6.203125 7.796875 9.296875 4.84375 
Q 12.40625 1.90625 16.796875 0.40625 
Q 21.203125 -1.09375 26.59375 -1.09375 
Q 31.59375 -1.09375 36.046875 0.25 
Q 40.5 1.59375 43.796875 4.296875 
Q 47.09375 7 49.046875 11.046875 
Q 51 15.09375 51 20.40625 
Q 51 26.796875 47.84375 31.5 
Q 44.703125 36.203125 38.203125 37.59375 
L 38.203125 37.796875 
Q 42.40625 39.703125 45.203125 43.390625 
Q 48 47.09375 48 51.90625 
Q 48 56.796875 46.34375 60.390625 
Q 44.703125 64 41.796875 66.296875 
Q 38.90625 68.59375 34.953125 69.75 
Q 31 70.90625 26.40625 70.90625 
Q 21.09375 70.90625 17.046875 69.203125 
Q 13 67.5 10.296875 64.5 
Q 7.59375 61.5 6.140625 57.296875 
Q 4.703125 53.09375 4.5 48 
L 13 48 
Q 13 51.09375 13.796875 53.890625 
Q 14.59375 56.703125 16.25 58.796875 
Q 17.90625 60.90625 20.453125 62.15625 
Q 23 63.40625 26.40625 63.40625 
Q 31.796875 63.40625 35.390625 60.546875 
Q 39 57.703125 39 52 
Q 39 49.203125 37.890625 47 
Q 36.796875 44.796875 34.9375 43.34375 
Q 33.09375 41.90625 30.640625 41.15625 
Q 28.203125 40.40625 25.5 40.40625 
L 23.703125 40.40625 
Q 23.203125 40.40625 22.703125 40.40625 
Q 22.296875 40.40625 21.796875 40.5 
z
" id="HelveticaNeue-51"/>
     </defs>
     <g transform="translate(181.060937 138.545312)scale(0.1 -0.1)">
      <use xlink:href="#HelveticaNeue-51"/>
      <use x="55.599991" xlink:href="#HelveticaNeue-48"/>
      <use x="111.199982" xlink:href="#HelveticaNeue-48"/>
      <use x="166.799973" xlink:href="#HelveticaNeue-32"/>
      <use x="194.59996" xlink:href="#HelveticaNeue-75"/>
     </g>
    </g>
    <g id="line2d_63">
     <path d="M 153.060937 149.15625 
L 173.060937 149.15625 
" style="fill:none;stroke:#08306b;stroke-linecap:square;stroke-width:1.5;"/>
    </g>
    <g id="line2d_64"/>
    <g id="text_16">
     <!-- 600 K -->
     <g transform="translate(181.060937 152.65625)scale(0.1 -0.1)">
      <use xlink:href="#HelveticaNeue-54"/>
      <use x="55.599991" xlink:href="#HelveticaNeue-48"/>
      <use x="111.199982" xlink:href="#HelveticaNeue-48"/>
      <use x="166.799973" xlink:href="#HelveticaNeue-32"/>
      <use x="194.59996" xlink:href="#HelveticaNeue-75"/>
     </g>
    </g>
    <g id="line2d_65"/>
    <g id="line2d_66">
     <defs>
      <path d="M -3 0 
L 3 0 
M 0 3 
L 0 -3 
" id="m833ccbb6cc" style="stroke:#000000;"/>
     </defs>
     <g>
      <use style="stroke:#000000;" x="163.060937" xlink:href="#m833ccbb6cc" y="163.435937"/>
     </g>
    </g>
    <g id="text_17">
     <!-- Mashino (2016) -->
     <defs>
      <path d="M 8 71.40625 
L 8 0 
L 17 0 
L 17 59.40625 
L 17.203125 59.40625 
L 39.5 0 
L 47.59375 0 
L 69.90625 59.40625 
L 70.09375 59.40625 
L 70.09375 0 
L 79.09375 0 
L 79.09375 71.40625 
L 66.09375 71.40625 
L 43.5 11.40625 
L 21 71.40625 
z
" id="HelveticaNeue-77"/>
      <path d="M 6.40625 71.40625 
L 6.40625 0 
L 14.90625 0 
L 14.90625 29.203125 
Q 14.90625 32.703125 15.84375 35.640625 
Q 16.796875 38.59375 18.6875 40.796875 
Q 20.59375 43 23.4375 44.203125 
Q 26.296875 45.40625 30.203125 45.40625 
Q 35.09375 45.40625 37.890625 42.59375 
Q 40.703125 39.796875 40.703125 35 
L 40.703125 0 
L 49.203125 0 
L 49.203125 34 
Q 49.203125 38.203125 48.34375 41.640625 
Q 47.5 45.09375 45.390625 47.59375 
Q 43.296875 50.09375 39.890625 51.5 
Q 36.5 52.90625 31.40625 52.90625 
Q 29.09375 52.90625 26.640625 52.40625 
Q 24.203125 51.90625 21.953125 50.84375 
Q 19.703125 49.796875 17.890625 48.140625 
Q 16.09375 46.5 15.09375 44.09375 
L 14.90625 44.09375 
L 14.90625 71.40625 
z
" id="HelveticaNeue-104"/>
      <path d="M 15.40625 61 
L 15.40625 71.40625 
L 6.90625 71.40625 
L 6.90625 61 
z
M 6.90625 51.703125 
L 6.90625 0 
L 15.40625 0 
L 15.40625 51.703125 
z
" id="HelveticaNeue-105"/>
      <path d="M 6.40625 51.703125 
L 6.40625 0 
L 14.90625 0 
L 14.90625 29.203125 
Q 14.90625 32.703125 15.84375 35.640625 
Q 16.796875 38.59375 18.6875 40.796875 
Q 20.59375 43 23.4375 44.203125 
Q 26.296875 45.40625 30.203125 45.40625 
Q 35.09375 45.40625 37.890625 42.59375 
Q 40.703125 39.796875 40.703125 35 
L 40.703125 0 
L 49.203125 0 
L 49.203125 34 
Q 49.203125 38.203125 48.34375 41.640625 
Q 47.5 45.09375 45.390625 47.59375 
Q 43.296875 50.09375 39.890625 51.5 
Q 36.5 52.90625 31.40625 52.90625 
Q 19.90625 52.90625 14.59375 43.5 
L 14.40625 43.5 
L 14.40625 51.703125 
z
" id="HelveticaNeue-110"/>
      <path d="M 12.59375 25.796875 
Q 12.59375 30.5 13.84375 34.140625 
Q 15.09375 37.796875 17.296875 40.296875 
Q 19.5 42.796875 22.453125 44.09375 
Q 25.40625 45.40625 28.703125 45.40625 
Q 32 45.40625 34.953125 44.09375 
Q 37.90625 42.796875 40.09375 40.296875 
Q 42.296875 37.796875 43.546875 34.140625 
Q 44.796875 30.5 44.796875 25.796875 
Q 44.796875 21.09375 43.546875 17.4375 
Q 42.296875 13.796875 40.09375 11.34375 
Q 37.90625 8.90625 34.953125 7.59375 
Q 32 6.296875 28.703125 6.296875 
Q 25.40625 6.296875 22.453125 7.59375 
Q 19.5 8.90625 17.296875 11.34375 
Q 15.09375 13.796875 13.84375 17.4375 
Q 12.59375 21.09375 12.59375 25.796875 
z
M 3.59375 25.796875 
Q 3.59375 20.09375 5.1875 15.1875 
Q 6.796875 10.296875 10 6.640625 
Q 13.203125 3 17.890625 0.953125 
Q 22.59375 -1.09375 28.703125 -1.09375 
Q 34.90625 -1.09375 39.546875 0.953125 
Q 44.203125 3 47.390625 6.640625 
Q 50.59375 10.296875 52.1875 15.1875 
Q 53.796875 20.09375 53.796875 25.796875 
Q 53.796875 31.5 52.1875 36.453125 
Q 50.59375 41.40625 47.390625 45.046875 
Q 44.203125 48.703125 39.546875 50.796875 
Q 34.90625 52.90625 28.703125 52.90625 
Q 22.59375 52.90625 17.890625 50.796875 
Q 13.203125 48.703125 10 45.046875 
Q 6.796875 41.40625 5.1875 36.453125 
Q 3.59375 31.5 3.59375 25.796875 
z
" id="HelveticaNeue-111"/>
     </defs>
     <g transform="translate(181.060937 166.935937)scale(0.1 -0.1)">
      <use xlink:href="#HelveticaNeue-77"/>
      <use x="87.099991" xlink:href="#HelveticaNeue-97"/>
      <use x="140.799988" xlink:href="#HelveticaNeue-115"/>
      <use x="190.799973" xlink:href="#HelveticaNeue-104"/>
      <use x="246.399963" xlink:href="#HelveticaNeue-105"/>
      <use x="268.59996" xlink:href="#HelveticaNeue-110"/>
      <use x="324.199951" xlink:href="#HelveticaNeue-111"/>
      <use x="381.599945" xlink:href="#HelveticaNeue-32"/>
      <use x="409.399933" xlink:href="#HelveticaNeue-40"/>
      <use x="435.299927" xlink:href="#HelveticaNeue-50"/>
      <use x="490.899918" xlink:href="#HelveticaNeue-48"/>
      <use x="546.499908" xlink:href="#HelveticaNeue-49"/>
      <use x="602.099899" xlink:href="#HelveticaNeue-54"/>
      <use x="657.69989" xlink:href="#HelveticaNeue-41"/>
     </g>
    </g>
   </g>
  </g>
 </g>
 <defs>
  <clipPath id="pe4487e767d">
   <rect height="271.8" width="223.2" x="35.21875" y="7.2"/>
  </clipPath>
 </defs>
</svg>
